<svg height="479pt" viewBox="0 0 479 479.98144" width="479pt" xmlns="http://www.w3.org/2000/svg"><path  fill="#ffffff"  d="m448.394531 120.53125c-.085937-.175781-.085937-.375-.191406-.550781s-.265625-.265625-.375-.425781c-21-36.03125-50.96875-66.015626-86.992187-87.03125-.160157-.113282-.265626-.289063-.441407-.390626-.175781-.105468-.382812-.105468-.566406-.191406-73.925781-42.601562-164.949219-42.585937-238.855469.039063-.195312.085937-.394531.085937-.578125.191406-.183593.105469-.28125.28125-.441406.390625-36.027344 21.003906-66.003906 50.96875-87.023437 86.984375-.109376.160156-.277344.257813-.375.433594-.097657.175781-.105469.375-.191407.550781-50.207031 87.425781-40.414062 196.90625 24.511719 274.03125s171.136719 105.441406 265.839844 70.875 157.699218-124.644531 157.679687-225.457031c.019531-41.9375-11.015625-83.136719-32-119.449219zm-208 343.449219c-120.527343-.15625-219.371093-95.554688-223.800781-216h55.800781c4.417969 0 8-3.582031 8-8s-3.582031-8-8-8h-55.800781c1.164062-33.882813 10.054688-67.046875 25.992188-96.96875l48.3125 27.894531c2.476562 1.453125 5.542968 1.46875 8.03125.039062 2.488281-1.433593 4.019531-4.085937 4.015624-6.957031-.007812-2.871093-1.550781-5.515625-4.046874-6.9375l-48.273438-27.871093c18.027344-28.683594 42.285156-52.941407 70.96875-70.96875l27.871094 48.273437c1.421875 2.496094 4.066406 4.039063 6.9375 4.046875 2.871094.003906 5.527344-1.527344 6.957031-4.015625 1.429687-2.492187 1.414063-5.554687-.035156-8.03125l-27.898438-48.3125c29.921875-15.9375 63.089844-24.828125 96.96875-25.992187v55.800781c0 4.417969 3.582031 8 8 8s8-3.582031 8-8v-55.800781c33.878907 1.164062 67.046875 10.054687 96.96875 25.992187l-27.898437 48.3125c-1.449219 2.476563-1.464844 5.539063-.035156 8.03125 1.429687 2.488281 4.085937 4.019531 6.957031 4.015625 2.871093-.007812 5.515625-1.550781 6.9375-4.046875l27.871093-48.273437c28.683594 18.027343 52.941407 42.285156 70.96875 70.96875l-48.273437 27.871093c-2.496094 1.421875-4.039063 4.066407-4.046875 6.9375-.003906 2.871094 1.527344 5.523438 4.015625 6.957031 2.488281 1.429688 5.554687 1.414063 8.03125-.039062l48.3125-27.894531c15.9375 29.921875 24.828125 63.085937 25.992187 96.96875h-55.800781c-4.417969 0-8 3.582031-8 8s3.582031 8 8 8h55.800781c-4.429687 120.445312-103.273437 215.84375-223.800781 216zm0 0"/><path  fill="#ffffff"  d="m240.394531 279.980469c20.550781.019531 37.773438-15.535157 39.835938-35.980469 2.066406-20.445312-11.695313-39.128906-31.835938-43.21875v-96.800781c0-4.417969-3.582031-8-8-8s-8 3.582031-8 8v96.800781c-20.140625 4.089844-33.902343 22.773438-31.835937 43.21875 2.0625 20.445312 19.285156 36 39.835937 35.980469zm0-64c13.253907 0 24 10.746093 24 24 0 13.253906-10.746093 24-24 24-13.253906 0-24-10.746094-24-24 0-13.253907 10.746094-24 24-24zm0 0"/><path  fill="#ffffff"  d="m336.394531 319.980469h-192c-13.253906 0-24 10.746093-24 24v32c0 13.253906 10.746094 24 24 24h192c13.253907 0 24-10.746094 24-24v-32c0-13.253907-10.746093-24-24-24zm8 56c0 4.417969-3.582031 8-8 8h-192c-4.417969 0-8-3.582031-8-8v-32c0-4.417969 3.582031-8 8-8h192c4.417969 0 8 3.582031 8 8zm0 0"/></svg>