<?xml version="1.0"?>
<svg xmlns="http://www.w3.org/2000/svg" viewBox="0 0 64 64" width="512" height="512"><g id="Think"><path  fill="#ffffff"  d="M31,21h2a1,1,0,0,1,1,1,1,1,0,0,0,2,0,3,3,0,0,0-3-3V18a1,1,0,0,0-2,0v1a3,3,0,0,0,0,6h2a1,1,0,0,1,0,2H31a1,1,0,0,1-1-1,1,1,0,0,0-2,0,3,3,0,0,0,3,3v1a1,1,0,0,0,2,0V29a3,3,0,0,0,0-6H31a1,1,0,0,1,0-2Z"/><path  fill="#ffffff"  d="M55.81,22.95A24.092,24.092,0,0,0,34.85,2.17,24.013,24.013,0,0,0,8,25.53a3.014,3.014,0,0,1-.08.68L4.02,43.78a1.037,1.037,0,0,0,.2.85A1.022,1.022,0,0,0,5,45h5v7a1,1,0,0,0,1,1H21v8a1,1,0,0,0,1,1H42a1,1,0,0,0,1-1V51.23a7,7,0,0,1,2.93-5.69A24.066,24.066,0,0,0,55.81,22.95ZM31,54H30a3.009,3.009,0,0,1-3-3V50h1a3.009,3.009,0,0,1,3,3Zm5-17a1,1,0,0,1,0,2H28a1,1,0,0,1,0-2Zm-8.1-4.99a9,9,0,1,1,8.19.01A3.866,3.866,0,0,0,34.03,35H29.97A3.91,3.91,0,0,0,27.9,32.01ZM30,41h4v1a1,1,0,0,1-1,1H31a1,1,0,0,1-1-1Zm3,12a3.009,3.009,0,0,1,3-3h1v1a3.009,3.009,0,0,1-3,3H33Zm11.77-9.09A9.018,9.018,0,0,0,41,51.23V60H33V56h1a5,5,0,0,0,5-5V49a1,1,0,0,0-1-1H36a4.924,4.924,0,0,0-3,1.03V45a3.009,3.009,0,0,0,3-3V41a3,3,0,0,0,.07-5.99A1.829,1.829,0,0,1,37,33.8a11,11,0,0,0-3.75-20.73A11,11,0,0,0,21,24a10.951,10.951,0,0,0,5.99,9.79,1.885,1.885,0,0,1,.94,1.22A3,3,0,0,0,28,41v1a3.009,3.009,0,0,0,3,3v4.03A4.924,4.924,0,0,0,28,48H26a1,1,0,0,0-1,1v2a5,5,0,0,0,5,5h1v4H23V52a1,1,0,0,0-1-1H12V44a1,1,0,0,0-1-1H6.25L9.86,26.67a4.3,4.3,0,0,0,.14-1.1A22.007,22.007,0,0,1,53.83,23.2,22.737,22.737,0,0,1,54,25.93,22.051,22.051,0,0,1,44.77,43.91Z"/><path  fill="#ffffff"  d="M32,7a1,1,0,0,0-1,1v2a1,1,0,0,0,2,0V8A1,1,0,0,0,32,7Z"/><path  fill="#ffffff"  d="M24.866,9.644a1,1,0,1,0-1.732,1l1,1.731a1,1,0,1,0,1.732-1Z"/><path  fill="#ffffff"  d="M20.375,16.134l-1.731-1a1,1,0,1,0-1,1.732l1.731,1a1,1,0,1,0,1-1.732Z"/><path  fill="#ffffff"  d="M19,24a1,1,0,0,0-1-1H16a1,1,0,0,0,0,2h2A1,1,0,0,0,19,24Z"/><path  fill="#ffffff"  d="M19.375,30.134l-1.731,1a1,1,0,1,0,1,1.732l1.731-1a1,1,0,1,0-1-1.732Z"/><path  fill="#ffffff"  d="M46.356,31.134l-1.732-1a1,1,0,1,0-1,1.732l1.732,1a1,1,0,1,0,1-1.732Z"/><path  fill="#ffffff"  d="M48,23H46a1,1,0,0,0,0,2h2a1,1,0,0,0,0-2Z"/><path  fill="#ffffff"  d="M44.125,18a.992.992,0,0,0,.5-.134l1.732-1a1,1,0,1,0-1-1.732l-1.732,1a1,1,0,0,0,.5,1.866Z"/><path  fill="#ffffff"  d="M40.5,9.277a1,1,0,0,0-1.366.367l-1,1.731a1,1,0,1,0,1.732,1l1-1.731A1,1,0,0,0,40.5,9.277Z"/></g></svg>
