<?xml version="1.0"?>
<svg xmlns="http://www.w3.org/2000/svg" viewBox="0 0 64 64" width="512" height="512"><g id="Folder"><path  fill="#ffffff"  d="M15,35V34a3,3,0,0,0,0-6H13a1,1,0,0,1,0-2h2a1,1,0,0,1,1,1,1,1,0,0,0,2,0,3,3,0,0,0-3-3V23a1,1,0,0,0-2,0v1a3,3,0,0,0,0,6h2a1,1,0,0,1,0,2H13a1,1,0,0,1-1-1,1,1,0,0,0-2,0,3,3,0,0,0,3,3v1a1,1,0,0,0,2,0Z"/><path  fill="#ffffff"  d="M61.43,28.11A4.949,4.949,0,0,0,57.35,26H54V19a5,5,0,0,0-5-5H30.66a3,3,0,0,1-2.12-.88L24.88,9.46A4.994,4.994,0,0,0,21.34,8H7a5,5,0,0,0-5,5V57a5,5,0,0,0,5,5H48.17a4.991,4.991,0,0,0,4.71-3.34l9.18-26A4.931,4.931,0,0,0,61.43,28.11ZM4,13a3.009,3.009,0,0,1,3-3H21.34a3,3,0,0,1,2.12.88l3.66,3.66A4.994,4.994,0,0,0,30.66,16H49a3.009,3.009,0,0,1,3,3v7H50V19a1,1,0,0,0-1-1H7a1,1,0,0,0-1,1V43.65L4,49.24Zm44,7v6H31.21a4.987,4.987,0,0,0-4.74,3.42l-1.51,4.53A2.988,2.988,0,0,1,22.12,36H12.26A5.022,5.022,0,0,0,8,38.4V20ZM60.18,32,51,58a3,3,0,0,1-2.83,2H7a3.009,3.009,0,0,1-3-3V55.17L9.43,39.99A3.012,3.012,0,0,1,12.26,38h9.86a4.987,4.987,0,0,0,4.74-3.42l1.51-4.53A2.988,2.988,0,0,1,31.21,28H57.35a3,3,0,0,1,2.83,4Z"/><path  fill="#ffffff"  d="M24,27H21a1,1,0,0,0,0,2h3a1,1,0,0,0,0-2Z"/><path  fill="#ffffff"  d="M22,32H21a1,1,0,0,0,0,2h1a1,1,0,0,0,0-2Z"/><path  fill="#ffffff"  d="M45,22H21a1,1,0,0,0,0,2H45a1,1,0,0,0,0-2Z"/></g></svg>
