<svg height="479pt" viewBox="0 -12 479.97197 479" width="479pt" xmlns="http://www.w3.org/2000/svg"><path  fill="#ffffff"  d="m375.964844 136.484375c-8.117188-.011719-16.207032.925781-24.105469 2.792969-2.382813-58.945313-44.746094-108.625-102.574219-120.296875-57.828125-11.667969-116.144531 17.695312-141.199218 71.105469-63.894532 10.027343-110.25 66.167968-108.007813 130.804687 2.238281 64.636719 52.371094 117.433594 116.808594 123.011719.976562.394531 2.023437.59375 3.078125.582031h32c4.417968 0 8-3.582031 8-8s-3.582032-8-8-8c-5.121094 0-23.199219-.078125-29.390625-.214844-.707031-.046875-1.359375 0-2.089844-.085937-57.574219-3.972656-102.703125-51.046875-104.25-108.738282-1.542969-57.691406 41.003906-107.113281 98.28125-114.160156 2.839844-.339844 5.277344-2.171875 6.402344-4.800781 20.859375-48.992187 73.328125-76.523437 125.496093-65.847656 52.167969 10.671875 89.609376 56.601562 89.550782 109.847656 0 1.722656-.070313 3.441406-.152344 5.167969-.117188 2.664062 1.101562 5.210937 3.246094 6.792968 2.148437 1.582032 4.941406 1.988282 7.449218 1.089844 9.453126-3.375 19.421876-5.085937 29.457032-5.050781 47.257812-.109375 86.167968 37.121094 88.132812 84.339844 1.96875 47.214843-33.710937 87.554687-80.8125 91.375-3.257812.191406-40.121094.285156-47.320312.285156-4.417969 0-8 3.582031-8 8s3.582031 8 8 8h48c1.101562-.003906 2.191406-.234375 3.199218-.679687 54.9375-5.925782 95.636719-53.792969 92.65625-108.964844-2.980468-55.175782-48.601562-98.378906-103.855468-98.355469zm0 0"/><path  fill="#ffffff"  d="m335.164062 292.996094c-1.335937-2.757813-4.132812-4.511719-7.199218-4.511719h-52.457032l19.953126-53.191406c.921874-2.457031.578124-5.210938-.917969-7.367188-1.496094-2.15625-3.953125-3.441406-6.578125-3.441406h-80c-3.726563 0-6.960938 2.570313-7.800782 6.203125l-24 104c-.546874 2.375.015626 4.871094 1.535157 6.78125 1.519531 1.90625 3.828125 3.019531 6.265625 3.015625h38.105468l-21.929687 102.328125c-.78125 3.640625 1.050781 7.335938 4.417969 8.917969 3.367187 1.585937 7.382812.636719 9.6875-2.285157l120-152c1.898437-2.40625 2.257812-5.6875.917968-8.449218zm-112.175781 123.546875 16.800781-78.402344c.5-2.359375-.09375-4.816406-1.609374-6.691406-1.519532-1.875-3.804688-2.960938-6.214844-2.964844h-37.945313l20.34375-88h62.097657l-19.953126 53.195313c-.917968 2.449218-.578124 5.195312.90625 7.347656 1.488282 2.15625 3.933594 3.445312 6.550782 3.457031h47.496094zm0 0"/><path  fill="#ffffff"  d="m431.964844 136.484375c0 4.417969 3.582031 8 8 8h32c4.417968 0 8-3.582031 8-8s-3.582032-8-8-8h-32c-4.417969 0-8 3.582031-8 8zm0 0"/><path  fill="#ffffff"  d="m427.109375 96.484375c1.402344 0 2.785156-.367187 4-1.070313l27.710937-16c2.496094-1.417968 4.039063-4.066406 4.046876-6.9375.007812-2.871093-1.527344-5.523437-4.015626-6.953124-2.488281-1.429688-5.554687-1.417969-8.03125.035156l-27.710937 16c-3.136719 1.808594-4.664063 5.5-3.726563 8.996094.9375 3.5 4.105469 5.929687 7.726563 5.929687zm0 0"/><path  fill="#ffffff"  d="m387.964844 60.277344c3.828125 2.210937 8.71875.898437 10.929687-2.925782l16-27.714843c1.449219-2.476563 1.464844-5.539063.035157-8.027344-1.429688-2.492187-4.085938-4.023437-6.957032-4.015625-2.871094.003906-5.515625 1.546875-6.9375 4.042969l-16 27.714843c-2.207031 3.824219-.894531 8.71875 2.929688 10.925782zm0 0"/><path  fill="#ffffff"  d="m343.964844 48.484375c4.417968 0 8-3.582031 8-8v-32c0-4.417969-3.582032-8-8-8-4.417969 0-8 3.582031-8 8v32c0 4.417969 3.582031 8 8 8zm0 0"/></svg>