<?xml version="1.0"?>
<svg xmlns="http://www.w3.org/2000/svg" viewBox="0 0 64 64" width="512" height="512"><g id="Global"><path  fill="#ffffff"  d="M32,29c1.221,0,2,.592,2,1a1,1,0,0,0,2,0c0-1.421-1.259-2.571-3-2.9V26a1,1,0,0,0-2,0v1.1c-1.741.327-3,1.477-3,2.9,0,1.682,1.757,3,4,3,1.221,0,2,.592,2,1s-.779,1-2,1-2-.592-2-1a1,1,0,0,0-2,0c0,1.421,1.259,2.571,3,2.9V38a1,1,0,0,0,2,0V36.9c1.741-.327,3-1.477,3-2.9,0-1.682-1.757-3-4-3-1.221,0-2-.592-2-1S30.779,29,32,29Z"/><path  fill="#ffffff"  d="M28.88,4.166a.977.977,0,0,0,.108-.006c.649-.07,1.3-.117,1.947-.139A1,1,0,0,0,31.9,2.985a1.012,1.012,0,0,0-1.035-.964c-.69.025-1.392.076-2.088.15a1,1,0,0,0,.105,2Z"/><path  fill="#ffffff"  d="M17.433,7.919a1,1,0,0,0,.5-.136c.56-.326,1.139-.637,1.718-.922a1,1,0,1,0-.882-1.795c-.622.306-1.242.639-1.843.989a1,1,0,0,0,.5,1.864Z"/><path  fill="#ffffff"  d="M22.958,5.438a1.027,1.027,0,0,0,.312-.05c.612-.2,1.243-.384,1.876-.543a1,1,0,0,0-.489-1.94c-.678.171-1.354.367-2.011.582a1,1,0,0,0,.312,1.951Z"/><path  fill="#ffffff"  d="M12.543,11.5a1,1,0,0,0,.671-.259c.478-.433.98-.857,1.492-1.259A1,1,0,0,0,13.47,8.4c-.549.431-1.087.886-1.6,1.35a1,1,0,0,0,.672,1.741Z"/><path  fill="#ffffff"  d="M3.41,27.012a1.036,1.036,0,0,0,.206.021,1,1,0,0,0,.978-.8c.132-.631.288-1.269.466-1.9A1,1,0,0,0,3.135,23.8c-.19.672-.358,1.356-.5,2.032A1,1,0,0,0,3.41,27.012Z"/><path  fill="#ffffff"  d="M5.068,21.177a.988.988,0,0,0,.405.087,1,1,0,0,0,.914-.6c.262-.59.55-1.182.855-1.758a1,1,0,0,0-1.768-.936c-.327.617-.634,1.251-.915,1.884A1,1,0,0,0,5.068,21.177Z"/><path  fill="#ffffff"  d="M8.5,16.008a1,1,0,0,0,.811-.413c.381-.527.785-1.046,1.2-1.543A1,1,0,1,0,8.973,12.77c-.445.532-.877,1.088-1.286,1.652a1,1,0,0,0,.224,1.4A.989.989,0,0,0,8.5,16.008Z"/><path  fill="#ffffff"  d="M52.075,12.481a1,1,0,1,0,1.434-1.394c-.482-.5-.989-.983-1.51-1.449a1,1,0,0,0-1.334,1.49C51.151,11.563,51.625,12.019,52.075,12.481Z"/><path  fill="#ffffff"  d="M34.842,4.142c.641.065,1.292.153,1.934.263a1,1,0,1,0,.338-1.971c-.687-.118-1.385-.213-2.073-.282a1,1,0,1,0-.2,1.99Z"/><path  fill="#ffffff"  d="M59.37,26.066c.136.63.252,1.277.345,1.923a1,1,0,0,0,.989.858,1.019,1.019,0,0,0,.144-.011A1,1,0,0,0,61.7,27.7c-.1-.692-.224-1.385-.37-2.059a1,1,0,0,0-1.955.421Z"/><path  fill="#ffffff"  d="M55.694,17.076a1,1,0,0,0,1.694-1.066c-.369-.585-.766-1.167-1.178-1.73A1,1,0,1,0,54.6,15.463C54.982,15.988,55.352,16.53,55.694,17.076Z"/><path  fill="#ffffff"  d="M57.543,20.513c.265.587.513,1.195.739,1.806a1,1,0,1,0,1.875-.694c-.241-.654-.508-1.3-.79-1.933a1,1,0,1,0-1.824.821Z"/><path  fill="#ffffff"  d="M4,32q0-.956.063-1.894a1,1,0,0,0-.931-1.064.987.987,0,0,0-1.064.93c-.045.67-.068,1.352-.068,2v.085a.974.974,0,0,0,1,.969A1.026,1.026,0,0,0,4,32Z"/><path  fill="#ffffff"  d="M40.567,5.334c.62.2,1.24.422,1.84.663a1,1,0,1,0,.744-1.856c-.644-.259-1.308-.5-1.972-.711a1,1,0,0,0-.612,1.9Z"/><path  fill="#ffffff"  d="M45.921,7.7c.562.322,1.12.67,1.659,1.031A1,1,0,1,0,48.7,7.071c-.578-.387-1.175-.759-1.778-1.1a1,1,0,0,0-1,1.735Z"/><path  fill="#ffffff"  d="M40.675,58.63c-.62.2-1.252.383-1.876.538a1,1,0,1,0,.482,1.941c.67-.166,1.348-.36,2.013-.577a1,1,0,1,0-.619-1.9Z"/><path  fill="#ffffff"  d="M54.659,48.453c-.379.521-.784,1.039-1.2,1.541a1,1,0,1,0,1.533,1.284c.449-.537.883-1.091,1.288-1.649a1,1,0,1,0-1.617-1.176Z"/><path  fill="#ffffff"  d="M58.91,42.879a1,1,0,0,0-1.32.507c-.263.588-.552,1.179-.859,1.757a1,1,0,0,0,.414,1.352.987.987,0,0,0,.468.117,1,1,0,0,0,.884-.53c.329-.618.639-1.251.919-1.883A1,1,0,0,0,58.91,42.879Z"/><path  fill="#ffffff"  d="M60.579,37.048a1,1,0,0,0-1.184.772c-.133.63-.291,1.267-.471,1.9a1,1,0,0,0,.686,1.236.986.986,0,0,0,.277.039,1,1,0,0,0,.961-.725c.192-.673.361-1.357.5-2.033A1,1,0,0,0,60.579,37.048Z"/><path  fill="#ffffff"  d="M50.743,52.8c-.482.435-.986.858-1.5,1.258a1,1,0,1,0,1.232,1.574c.547-.428,1.086-.881,1.6-1.345A1,1,0,0,0,50.743,52.8Z"/><path  fill="#ffffff"  d="M34.954,59.846c-.646.068-1.3.113-1.947.135a1,1,0,0,0,.033,2h.035c.693-.023,1.395-.072,2.088-.145a1,1,0,0,0-.209-1.989Z"/><path  fill="#ffffff"  d="M61,30.879a1,1,0,0,0-1,1V32c0,.649-.022,1.307-.067,1.952a1,1,0,0,0,.929,1.067l.07,0a1,1,0,0,0,1-.931C61.976,33.4,62,32.7,62,32v-.121A1,1,0,0,0,61,30.879Z"/><path  fill="#ffffff"  d="M46.016,56.246c-.562.325-1.141.634-1.722.919a1,1,0,0,0,.44,1.9.986.986,0,0,0,.439-.1c.623-.3,1.243-.635,1.845-.983a1,1,0,0,0-1-1.731Z"/><path  fill="#ffffff"  d="M23.377,58.647c-.618-.2-1.236-.423-1.838-.666a1,1,0,1,0-.747,1.855c.645.26,1.308.5,1.97.715a1.032,1.032,0,0,0,.308.049,1,1,0,0,0,.307-1.953Z"/><path  fill="#ffffff"  d="M29.1,59.852c-.64-.066-1.291-.156-1.935-.267a1,1,0,0,0-.341,1.971c.689.119,1.386.215,2.072.285a.9.9,0,0,0,.1.006,1,1,0,0,0,.1-2Z"/><path  fill="#ffffff"  d="M11.884,51.477a1,1,0,0,0-1.437,1.391c.485.5.991.988,1.507,1.452a1,1,0,0,0,1.337-1.487C12.81,52.4,12.336,51.943,11.884,51.477Z"/><path  fill="#ffffff"  d="M6.433,43.434c-.266-.592-.513-1.2-.735-1.807a1,1,0,0,0-1.878.688c.239.65.5,1.3.787,1.936a1,1,0,0,0,.914.592,1,1,0,0,0,.912-1.409Z"/><path  fill="#ffffff"  d="M8.273,46.874A1,1,0,0,0,6.58,47.938c.369.588.764,1.171,1.173,1.731a1,1,0,1,0,1.616-1.178C8.987,47.967,8.618,47.423,8.273,46.874Z"/><path  fill="#ffffff"  d="M4.617,37.876c-.135-.629-.249-1.276-.341-1.922a1,1,0,1,0-1.98.281c.1.692.221,1.385.365,2.059a1,1,0,0,0,.977.791.937.937,0,0,0,.21-.022A1,1,0,0,0,4.617,37.876Z"/><path  fill="#ffffff"  d="M18.028,56.271c-.56-.324-1.118-.672-1.658-1.036a1,1,0,1,0-1.118,1.659c.579.39,1.177.763,1.776,1.109a1,1,0,1,0,1-1.732Z"/><path  fill="#ffffff"  d="M57,32A25,25,0,1,0,32,57,25.028,25.028,0,0,0,57,32ZM9.025,33h6.991a36.51,36.51,0,0,0,1.62,10H11.807A22.844,22.844,0,0,1,9.025,33Zm2.782-12h5.829a36.51,36.51,0,0,0-1.62,10H9.025A22.844,22.844,0,0,1,11.807,21ZM54.975,31H47.984a36.51,36.51,0,0,0-1.62-10h5.83A22.857,22.857,0,0,1,54.975,31Zm-8.99,0H41.949A10.015,10.015,0,0,0,33,22.051V21H44.292A34.712,34.712,0,0,1,45.985,31ZM32,40a8,8,0,1,1,8-8A8.009,8.009,0,0,1,32,40Zm1-21V9.065c4.371.51,8.193,4.326,10.541,9.935ZM31,9.065V19H20.459C22.807,13.391,26.629,9.575,31,9.065ZM31,21v1.051A10.015,10.015,0,0,0,22.051,31H18.015a34.712,34.712,0,0,1,1.693-10ZM18.015,33h4.036A10.015,10.015,0,0,0,31,41.949V43H19.708A34.712,34.712,0,0,1,18.015,33ZM31,45v9.935c-4.371-.51-8.193-4.326-10.541-9.935Zm2,9.935V45H43.541C41.193,50.609,37.371,54.425,33,54.935ZM33,43V41.949A10.015,10.015,0,0,0,41.949,33h4.036a34.712,34.712,0,0,1-1.693,10ZM47.984,33h6.991a22.857,22.857,0,0,1-2.781,10h-5.83A36.51,36.51,0,0,0,47.984,33ZM50.96,19h-5.3A23,23,0,0,0,40.147,10.5,23.119,23.119,0,0,1,50.96,19ZM23.853,10.5A23,23,0,0,0,18.339,19h-5.3A23.125,23.125,0,0,1,23.853,10.5ZM13.04,45h5.3a23,23,0,0,0,5.514,8.505A23.125,23.125,0,0,1,13.04,45Zm27.107,8.505A23,23,0,0,0,45.661,45h5.3A23.119,23.119,0,0,1,40.147,53.505Z"/></g></svg>
