<?xml version="1.0"?>
<svg xmlns="http://www.w3.org/2000/svg" viewBox="0 0 64 64" width="512px" height="512px"><g><g id="Setting"><path d="M34,28H30a1,1,0,0,1-1-1V24.543a9.991,9.991,0,0,1-1.625-.674l-1.738,1.738a1,1,0,0,1-1.414,0l-2.83-2.83a1,1,0,0,1,0-1.414l1.738-1.738A9.991,9.991,0,0,1,22.457,18H20a1,1,0,0,1-1-1V13a1,1,0,0,1,1-1h2.457a9.991,9.991,0,0,1,.674-1.625L21.393,8.637a1,1,0,0,1,0-1.414l2.83-2.83a1,1,0,0,1,1.414,0l1.738,1.738A9.991,9.991,0,0,1,29,5.457V3a1,1,0,0,1,1-1h4a1,1,0,0,1,1,1V5.457a9.991,9.991,0,0,1,1.625.674l1.738-1.738a1,1,0,0,1,1.414,0l2.83,2.83a1,1,0,0,1,0,1.414l-1.738,1.738A9.991,9.991,0,0,1,41.543,12H44a1,1,0,0,1,1,1v4a1,1,0,0,1-1,1H41.543a9.991,9.991,0,0,1-.674,1.625l1.738,1.738a1,1,0,0,1,0,1.414l-2.83,2.83a1,1,0,0,1-1.414,0l-1.738-1.738A9.991,9.991,0,0,1,35,24.543V27A1,1,0,0,1,34,28Zm-3-2h2V23.78a1,1,0,0,1,.776-.975,8.071,8.071,0,0,0,2.48-1.031,1,1,0,0,1,1.241.139l1.573,1.573,1.416-1.416L38.913,20.5a1,1,0,0,1-.139-1.241,8.118,8.118,0,0,0,1.032-2.481A1,1,0,0,1,40.78,16H43V14H40.78a1,1,0,0,1-.974-.775,8.118,8.118,0,0,0-1.032-2.481A1,1,0,0,1,38.913,9.5L40.486,7.93,39.07,6.514,37.5,8.087a1,1,0,0,1-1.241.139,8.118,8.118,0,0,0-2.481-1.032A1,1,0,0,1,33,6.22V4H31V6.22a1,1,0,0,1-.775.974,8.118,8.118,0,0,0-2.481,1.032A1,1,0,0,1,26.5,8.087L24.93,6.514,23.514,7.93,25.087,9.5a1,1,0,0,1,.139,1.241,8.118,8.118,0,0,0-1.032,2.481A1,1,0,0,1,23.22,14H21v2h2.22a1,1,0,0,1,.974.775,8.118,8.118,0,0,0,1.032,2.481,1,1,0,0,1-.139,1.241L23.514,22.07l1.416,1.416L26.5,21.913a1,1,0,0,1,1.241-.139,8.071,8.071,0,0,0,2.48,1.031A1,1,0,0,1,31,23.78Z" data-original="#000000" class="active-path" data-old_color="#000000" fill="#FFFFFF"/><path d="M32,20a5,5,0,1,1,5-5A5.006,5.006,0,0,1,32,20Zm0-8a3,3,0,1,0,3,3A3,3,0,0,0,32,12Z" data-original="#000000" class="active-path" data-old_color="#000000" fill="#FFFFFF"/><path d="M44,30H20A11.007,11.007,0,0,0,9,41V61a1,1,0,0,0,1,1H54a1,1,0,0,0,1-1V41A11.007,11.007,0,0,0,44,30Zm-7.32,2h4.89L36.55,45.7l-1.52-9.58Zm-2.16,0-1.2,3H30.68l-1.2-3Zm-7.2,0,1.65,4.12L27.45,45.7,22.43,32ZM11,60V41a9.014,9.014,0,0,1,9-9h.3L30.57,60ZM28.87,49.56,30.85,37h2.3l1.98,12.56L32,58.1ZM53,60H33.43L43.7,32H44a9.014,9.014,0,0,1,9,9Z" data-original="#000000" class="active-path" data-old_color="#000000" fill="#FFFFFF"/></g></g> </svg>
