<svg height="480pt" viewBox="0 0 480 480" width="480pt" xmlns="http://www.w3.org/2000/svg"><path  fill="#ffffff"  d="m384 248c-4.417969 0-8 3.582031-8 8v96c0 13.253906-10.746094 24-24 24h-224c-13.253906 0-24-10.746094-24-24v-32c0-4.417969-3.582031-8-8-8s-8 3.582031-8 8v32c.027344 22.082031 17.917969 39.972656 40 40h16v80c0 4.417969 3.582031 8 8 8h176c4.417969 0 8-3.582031 8-8v-80h16c22.082031-.027344 39.972656-17.917969 40-40v-96c0-4.417969-3.582031-8-8-8zm-64 216h-160v-72h160zm0 0"/><path  fill="#ffffff"  d="m96 224c4.417969 0 8-3.582031 8-8v-88c0-13.253906 10.746094-24 24-24h224c13.253906 0 24 10.746094 24 24v16c0 4.417969 3.582031 8 8 8s8-3.582031 8-8v-16c-.027344-22.082031-17.917969-39.972656-40-40h-8v-80c0-4.417969-3.582031-8-8-8h-192c-4.417969 0-8 3.582031-8 8v80h-8c-22.082031.027344-39.972656 17.917969-40 40v88c0 4.417969 3.582031 8 8 8zm56-208h176v72h-176zm0 0"/><path  fill="#ffffff"  d="m472 192h-16c-3.273438 0-6.21875 1.992188-7.433594 5.03125l-24.421875 61.066406-32.671875-84.96875c-1.019531-2.644531-3.359375-4.550781-6.15625-5.015625-2.792968-.464843-5.625.585938-7.445312 2.757813l-37.613282 45.128906h-7.371093c.25-1.953125.378906-3.917969.394531-5.886719-.023438-19.414062-11.738281-36.902343-29.683594-44.308593-17.941406-7.410157-38.582031-3.28125-52.292968 10.460937l-11.304688 11.300781-11.304688-11.300781c-13.710937-13.742187-34.351562-17.871094-52.292968-10.460937-17.945313 7.40625-29.660156 24.894531-29.683594 44.308593.015625 1.96875.144531 3.933594.394531 5.886719h-27.113281c-2.925781 0-5.621094 1.597656-7.023438 4.167969l-36.335937 66.625-20.710937-151.871094c-.515626-3.835937-3.699219-6.753906-7.566407-6.929687-3.863281-.179688-7.300781 2.4375-8.164062 6.207031l-22.558594 97.800781h-9.640625c-4.417969 0-8 3.582031-8 8s3.582031 8 8 8h16c3.726562.003906 6.960938-2.570312 7.800781-6.199219l14.175781-61.449219 18.09375 132.726563c.46875 3.425781 3.082032 6.160156 6.480469 6.785156.476563.09375.964844.140625 1.449219.136719 2.925781 0 5.621094-1.597656 7.023438-4.167969l45.730468-83.832031h27.246094c2.285156 4.476562 5.253906 8.570312 8.800781 12.136719l73.519531 73.519531c3.125 3.121094 8.1875 3.121094 11.3125 0l73.519532-73.519531c3.5625-3.5625 6.546875-7.65625 8.847656-12.136719h16c2.371094 0 4.625-1.050781 6.144531-2.871094l31.28125-37.542968 35.101563 91.285156c1.183594 3.074218 4.125 5.109375 7.417968 5.128906h.054688c3.273438 0 6.21875-1.992188 7.433594-5.03125l29.980468-74.96875h10.585938c4.417969 0 8-3.582031 8-8s-3.582031-8-8-8zm-164.136719 40.800781-67.863281 67.886719-67.863281-67.886719c-6.039063-5.988281-9.433594-14.136719-9.433594-22.640625s3.394531-16.652344 9.433594-22.640625c5.960937-6.03125 14.101562-9.40625 22.582031-9.359375 8.511719-.015625 16.671875 3.375 22.664062 9.414063l16.960938 16.960937c3.125 3.125 8.1875 3.125 11.3125 0l16.96875-16.960937c12.625-12.171875 32.621094-12.171875 45.246094 0 6.023437 5.984375 9.410156 14.125 9.410156 22.617187 0 8.492188-3.386719 16.632813-9.410156 22.617188zm0 0"/></svg>