<?xml version="1.0" encoding="iso-8859-1"?>
<!-- Generator: Adobe Illustrator 19.0.0, SVG Export Plug-In . SVG Version: 6.00 Build 0)  -->
<svg version="1.1" id="Capa_1" xmlns="http://www.w3.org/2000/svg" xmlns:xlink="http://www.w3.org/1999/xlink" x="0px" y="0px"
	 viewBox="0 0 496 496" style="enable-background:new 0 0 496 496;" xml:space="preserve">
<g>
	<g>
		<path  fill="#ffffff"  d="M384,40v81.472c-2.512-0.896-5.184-1.472-8-1.472c-13.232,0-24,10.768-24,24s10.768,24,24,24s24-10.768,24-24V56h24V40
			H384z M376,152c-4.416,0-8-3.592-8-8s3.584-8,8-8c4.416,0,8,3.592,8,8S380.416,152,376,152z"/>
	</g>
</g>
<g>
	<g>
		<path  fill="#ffffff"  d="M440,248H320v16h120c22.056,0,40,17.944,40,40c0,22.056-17.944,40-40,40h-57.192L405,326.248l-10-12.496L347.192,352
			L395,390.248l10-12.496L382.808,360H440c30.872,0,56-25.12,56-56S470.872,248,440,248z"/>
	</g>
</g>
<g>
	<g>
		<path  fill="#ffffff"  d="M16,304c0-22.056,17.944-40,40-40h97.192L131,281.752l10,12.496L188.808,256L141,217.752l-10,12.496L153.192,248H56
			c-30.872,0-56,25.12-56,56s25.128,56,56,56h88v-16H56C33.944,344,16,326.056,16,304z"/>
	</g>
</g>
<g>
	<g>
		<path  fill="#ffffff"  d="M304,411.768c20.392-16.808,32-41.28,32-67.768c0-48.52-39.48-88-88-88c-48.52,0-88,39.48-88,88
			c0,26.488,11.608,50.96,32,67.768V416h-16v16h16v16h-16v16h16v32h112v-32h16v-16h-16v-16h16v-16h-16V411.768z M288,448h-16v16h16
			v16h-80v-16h48v-16h-48v-16h80V448z M291.184,401.504L288,403.896V416h-32v-41.136c13.768-3.576,24-16,24-30.864
			c0-17.648-14.352-32-32-32s-32,14.352-32,32c0,14.864,10.232,27.288,24,30.864V416h-32v-12.104l-3.184-2.4
			C186.496,387.72,176,366.76,176,344c0-39.696,32.296-72,72-72s72,32.304,72,72C320,366.76,309.504,387.72,291.184,401.504z
			 M248,360c-8.824,0-16-7.176-16-16c0-8.824,7.176-16,16-16c8.824,0,16,7.176,16,16C264,352.824,256.824,360,248,360z"/>
	</g>
</g>
<g>
	<g>
		<path  fill="#ffffff"  d="M104,96c-8.824,0-16-7.176-16-16s7.176-16,16-16s16,7.176,16,16h16c0-14.864-10.232-27.288-24-30.864V32H96v17.136
			c-13.768,3.576-24,16-24,30.864c0,17.648,14.352,32,32,32c8.824,0,16,7.176,16,16s-7.176,16-16,16s-16-7.176-16-16H72
			c0,14.864,10.232,27.288,24,30.864V176h16v-17.136c13.768-3.576,24-16,24-30.864C136,110.352,121.648,96,104,96z"/>
	</g>
</g>
<g>
	<g>
		<rect fill="#ffffff" x="160" y="96" width="16" height="16"/>
	</g>
</g>
<g>
	<g>
		<rect fill="#ffffff" x="32" y="96" width="16" height="16"/>
	</g>
</g>
<g>
	<g>
		<path  fill="#ffffff"  d="M104,0C46.656,0,0,46.656,0,104s46.656,104,104,104c24.944,0,49.072-8.968,67.928-25.256l-10.456-12.112
			C145.512,184.416,125.112,192,104,192c-48.52,0-88-39.48-88-88s39.48-88,88-88s88,39.48,88,88c0,20.288-6.712,39.352-19.4,55.12
			l12.472,10.032C199.856,150.776,208,127.64,208,104C208,46.656,161.344,0,104,0z"/>
	</g>
</g>
<g>
	<g>
		<path  fill="#ffffff"  d="M392,0c-57.344,0-104,46.656-104,104s46.656,104,104,104c24.944,0,49.072-8.968,67.928-25.256l-10.456-12.112
			C433.512,184.416,413.112,192,392,192c-48.52,0-88-39.48-88-88s39.48-88,88-88c48.52,0,88,39.48,88,88
			c0,20.288-6.712,39.352-19.4,55.12l12.472,10.032C487.856,150.776,496,127.64,496,104C496,46.656,449.344,0,392,0z"/>
	</g>
</g>
<g>
</g>
<g>
</g>
<g>
</g>
<g>
</g>
<g>
</g>
<g>
</g>
<g>
</g>
<g>
</g>
<g>
</g>
<g>
</g>
<g>
</g>
<g>
</g>
<g>
</g>
<g>
</g>
<g>
</g>
</svg>
