<?xml version="1.0" encoding="iso-8859-1"?>
<!-- Generator: Adobe Illustrator 19.0.0, SVG Export Plug-In . SVG Version: 6.00 Build 0)  -->
<svg version="1.1" id="Capa_1" xmlns="http://www.w3.org/2000/svg" xmlns:xlink="http://www.w3.org/1999/xlink" x="0px" y="0px"
	 viewBox="0 0 496 496" style="enable-background:new 0 0 496 496;" xml:space="preserve">
<g>
	<g>
		<path  fill="#ffffff"  d="M496,248C496,111.256,384.744,0,248,0c-42.872,0-84.64,11.104-121.672,32H96V0H48v101.496C16.64,144.216,0,194.776,0,248
			c0,136.752,111.256,248,248,248c30.472,0,60.216-5.48,88.416-16.248C352.512,489.984,371.552,496,392,496
			c24.944,0,49.072-8.968,67.936-25.248L449.48,458.64C433.52,472.416,413.112,480,392,480c-48.52,0-88-39.48-88-88
			c0-48.52,39.48-88,88-88c48.52,0,88,39.48,88,88c0,20.28-6.704,39.344-19.4,55.128l12.472,10.032
			C487.856,438.768,496,415.632,496,392c0-20.464-6.024-39.504-16.264-55.608C490.496,308.184,496,278.472,496,248z M128,80h16v16
			v96h-16V80z M96,48h16v16v128H96V48z M64,16h16v16v160H64V16z M240,479.8C118.432,475.648,20.352,377.568,16.2,256H240V479.8z
			 M240,240H16.32c1.304-38.944,12.12-76.16,31.68-109.336V208h32h16h16h16h16h16h16h16h32v-80h-32V96h-32V64h-32V49.536
			c33.848-20.512,72.312-31.896,112-33.256V240z M160,192v-80h16v16v64H160z M192,192v-48h16v48H192z M479.8,240h-68.488
			l58.832-58.832C475.792,199.896,479.104,219.616,479.8,240z M439.488,117.2l-89.352,89.352l11.312,11.312l86.8-86.8
			c6.208,10.592,11.592,21.712,16.088,33.288L388.688,240h-49.376l10.344-10.344l-11.312-11.312L316.688,240h-49.376L417.496,89.816
			C425.48,98.376,432.848,107.512,439.488,117.2z M256,16.2c20.384,0.696,40.104,4.008,58.832,9.656L256,84.688V16.2z M256,179.312
			l97.224-97.224l-11.312-11.312L256,156.688v-49.376l75.648-75.648c11.576,4.488,22.696,9.872,33.288,16.088L352.048,60.64
			l11.312,11.312l15.44-15.44c9.688,6.64,18.824,14,27.384,21.992L256,228.688V179.312z M392,288c-57.344,0-104,46.656-104,104
			c0,30.088,12.92,57.144,33.408,76.152c-21.08,7.032-43.008,10.912-65.408,11.664V256h223.816
			c-0.752,22.392-4.664,44.304-11.688,65.384C449.12,300.904,422.072,288,392,288z"/>
	</g>
</g>
<g>
	<g>
		<rect fill="#ffffff" x="84.155" y="336" transform="matrix(0.7071 -0.7071 0.7071 0.7071 -198.7141 208.2625)" width="135.767" height="16"/>
	</g>
</g>
<g>
	<g>
		<path  fill="#ffffff"  d="M184,352c-13.232,0-24,10.768-24,24s10.768,24,24,24s24-10.768,24-24S197.232,352,184,352z M184,384c-4.408,0-8-3.584-8-8
			c0-4.416,3.592-8,8-8s8,3.584,8,8C192,380.416,188.408,384,184,384z"/>
	</g>
</g>
<g>
	<g>
		<path  fill="#ffffff"  d="M120,288c-13.232,0-24,10.768-24,24s10.768,24,24,24s24-10.768,24-24S133.232,288,120,288z M120,320c-4.408,0-8-3.584-8-8
			c0-4.416,3.592-8,8-8s8,3.584,8,8C128,316.416,124.408,320,120,320z"/>
	</g>
</g>
<g>
	<g>
		<path  fill="#ffffff"  d="M392,384c-8.824,0-16-7.176-16-16c0-8.824,7.176-16,16-16c8.824,0,16,7.176,16,16h16c0-14.872-10.24-27.288-24-30.864V320
			h-16v17.136c-13.76,3.576-24,15.992-24,30.864c0,17.648,14.352,32,32,32c8.824,0,16,7.176,16,16c0,8.824-7.176,16-16,16
			c-8.824,0-16-7.176-16-16h-16c0,14.872,10.24,27.288,24,30.864V464h16v-17.136c13.76-3.576,24-15.992,24-30.864
			C424,398.352,409.648,384,392,384z"/>
	</g>
</g>
<g>
	<g>
		<rect fill="#ffffff" x="448" y="384" width="16" height="16"/>
	</g>
</g>
<g>
	<g>
		<rect fill="#ffffff" x="320" y="384" width="16" height="16"/>
	</g>
</g>
<g>
</g>
<g>
</g>
<g>
</g>
<g>
</g>
<g>
</g>
<g>
</g>
<g>
</g>
<g>
</g>
<g>
</g>
<g>
</g>
<g>
</g>
<g>
</g>
<g>
</g>
<g>
</g>
<g>
</g>
</svg>
