<svg height="512" viewBox="0 0 64 64" width="512" xmlns="http://www.w3.org/2000/svg"><g id="Reward"><path  fill="#ffffff"  d="m32 21c1.221 0 2 .592 2 1a1 1 0 0 0 2 0c0-1.421-1.259-2.571-3-2.9v-1.1a1 1 0 0 0 -2 0v1.1c-1.741.327-3 1.477-3 2.9 0 1.682 1.757 3 4 3 1.221 0 2 .592 2 1s-.779 1-2 1-2-.592-2-1a1 1 0 0 0 -2 0c0 1.421 1.259 2.571 3 2.9v1.1a1 1 0 0 0 2 0v-1.1c1.741-.327 3-1.477 3-2.9 0-1.682-1.757-3-4-3-1.221 0-2-.592-2-1s.779-1 2-1z"/><path  fill="#ffffff"  d="m45 24a13 13 0 1 0 -13 13 13.015 13.015 0 0 0 13-13zm-13 11a11 11 0 1 1 11-11 11.013 11.013 0 0 1 -11 11z"/><path  fill="#ffffff"  d="m46.407 37.956a8.388 8.388 0 0 1 1.582-.779 5.8 5.8 0 0 0 3.058-2.124 5.761 5.761 0 0 0 .331-3.673 6.162 6.162 0 0 1 -.048-2.151 5.97 5.97 0 0 1 1.088-1.751 5.845 5.845 0 0 0 1.6-3.42 5.846 5.846 0 0 0 -1.584-3.429 5.922 5.922 0 0 1 -1.079-1.757 6.148 6.148 0 0 1 .058-2.152 5.758 5.758 0 0 0 -.312-3.673 5.8 5.8 0 0 0 -3.046-2.141 6.054 6.054 0 0 1 -1.855-1.006 6.069 6.069 0 0 1 -1-1.862 5.791 5.791 0 0 0 -2.124-3.059 5.758 5.758 0 0 0 -3.672-.33 6.113 6.113 0 0 1 -2.152.046 5.917 5.917 0 0 1 -1.752-1.095 5.851 5.851 0 0 0 -3.421-1.6h-.009a5.856 5.856 0 0 0 -3.42 1.586 5.967 5.967 0 0 1 -1.756 1.078 6.2 6.2 0 0 1 -2.152-.059 5.751 5.751 0 0 0 -3.675.312 5.8 5.8 0 0 0 -2.138 3.046 6.087 6.087 0 0 1 -1.013 1.858 6.048 6.048 0 0 1 -1.862 1 5.806 5.806 0 0 0 -3.054 2.126 5.761 5.761 0 0 0 -.33 3.671 6.143 6.143 0 0 1 .046 2.153 5.926 5.926 0 0 1 -1.087 1.752 5.854 5.854 0 0 0 -1.6 3.419 5.85 5.85 0 0 0 1.585 3.429 5.922 5.922 0 0 1 1.079 1.757 6.175 6.175 0 0 1 -.059 2.152 5.768 5.768 0 0 0 .311 3.674 5.8 5.8 0 0 0 3.047 2.139 8.407 8.407 0 0 1 1.579.788l-10.22 17.6a1 1 0 0 0 1.121 1.469l7.728-2.05 1.8 6.763a1 1 0 0 0 1.832.244l9.714-16.777a4.388 4.388 0 0 0 2.418.87h.009a4.391 4.391 0 0 0 2.414-.857l9.629 16.827a1 1 0 0 0 .868.5.9.9 0 0 0 .127-.009 1 1 0 0 0 .838-.73l1.83-6.75 7.728 2.092a1 1 0 0 0 1.128-1.463zm-27.1 20.857-1.43-5.389a1 1 0 0 0 -1.223-.71l-6.37 1.686 8.485-14.615c.025.061.05.119.075.18a5.8 5.8 0 0 0 2.125 3.058 5.765 5.765 0 0 0 3.672.331 6.164 6.164 0 0 1 2.152-.047 3.784 3.784 0 0 1 1.135.625zm12.663-14.813a4.4 4.4 0 0 1 -2.2-1.186 7.308 7.308 0 0 0 -2.453-1.435 4.722 4.722 0 0 0 -1.236-.149 13.455 13.455 0 0 0 -1.688.143 4.348 4.348 0 0 1 -2.415-.076 4.375 4.375 0 0 1 -1.282-2.09 9.352 9.352 0 0 0 -1.068-2.071c-.012-.016-.244-.319-.365-.441a7.459 7.459 0 0 0 -2.505-1.447 4.382 4.382 0 0 1 -2.083-1.291 4.362 4.362 0 0 1 -.063-2.416 7.6 7.6 0 0 0 .009-2.925 7.344 7.344 0 0 0 -1.421-2.459 4.4 4.4 0 0 1 -1.175-2.209 4.4 4.4 0 0 1 1.186-2.2 7.308 7.308 0 0 0 1.435-2.453 7.58 7.58 0 0 0 .006-2.926 4.349 4.349 0 0 1 .076-2.413 4.374 4.374 0 0 1 2.09-1.281 7.476 7.476 0 0 0 2.512-1.434 7.454 7.454 0 0 0 1.447-2.506 4.4 4.4 0 0 1 1.288-2.085 4.359 4.359 0 0 1 2.415-.062 7.558 7.558 0 0 0 2.925.009 7.344 7.344 0 0 0 2.459-1.422 4.412 4.412 0 0 1 2.206-1.175 4.4 4.4 0 0 1 2.2 1.186 7.3 7.3 0 0 0 2.453 1.435 7.589 7.589 0 0 0 2.924.006 4.348 4.348 0 0 1 2.415.076 4.374 4.374 0 0 1 1.281 2.09 7.467 7.467 0 0 0 1.433 2.512 7.459 7.459 0 0 0 2.505 1.447 4.389 4.389 0 0 1 2.084 1.292 4.355 4.355 0 0 1 .063 2.414 7.577 7.577 0 0 0 -.009 2.925 7.326 7.326 0 0 0 1.422 2.461 4.387 4.387 0 0 1 1.174 2.208 4.392 4.392 0 0 1 -1.186 2.2 7.33 7.33 0 0 0 -1.429 2.455 7.609 7.609 0 0 0 -.005 2.924 4.351 4.351 0 0 1 -.076 2.416 4.377 4.377 0 0 1 -2.09 1.281 7.467 7.467 0 0 0 -2.512 1.433c-.122.121-.356.423-.368.44a9.428 9.428 0 0 0 -1.078 2.065 4.4 4.4 0 0 1 -1.291 2.084 4.377 4.377 0 0 1 -2.417.062 7.533 7.533 0 0 0 -2.924-.009 7.334 7.334 0 0 0 -2.459 1.422 4.412 4.412 0 0 1 -2.207 1.175zm15.265 8.793a1 1 0 0 0 -1.225.7l-1.459 5.381-8.539-14.918a3.8 3.8 0 0 1 1.137-.619 6.172 6.172 0 0 1 2.151.063 5.765 5.765 0 0 0 3.675-.312 5.809 5.809 0 0 0 2.139-3.047c.026-.061.051-.119.076-.179l8.41 14.654z"/><path  fill="#ffffff"  d="m50.758 8.97.508.127a4.989 4.989 0 0 1 3.634 3.638l.127.508a1 1 0 0 0 1.94 0l.127-.508a4.989 4.989 0 0 1 3.64-3.635l.508-.127a1 1 0 0 0 0-1.94l-.508-.133a4.989 4.989 0 0 1 -3.634-3.635l-.127-.508a1 1 0 0 0 -1.94 0l-.127.508a4.989 4.989 0 0 1 -3.64 3.635l-.508.127a1 1 0 0 0 0 1.94zm5.242-3.223a6.978 6.978 0 0 0 2.253 2.253 6.978 6.978 0 0 0 -2.253 2.253 6.978 6.978 0 0 0 -2.253-2.253 6.978 6.978 0 0 0 2.253-2.253z"/><path  fill="#ffffff"  d="m2.758 8.97.508.127a4.989 4.989 0 0 1 3.634 3.638l.127.508a1 1 0 0 0 1.94 0l.127-.508a4.989 4.989 0 0 1 3.64-3.635l.508-.127a1 1 0 0 0 0-1.94l-.508-.133a4.989 4.989 0 0 1 -3.634-3.635l-.13-.508a1 1 0 0 0 -1.94 0l-.13.508a4.989 4.989 0 0 1 -3.634 3.635l-.508.127a1 1 0 0 0 0 1.94zm5.242-3.223a6.978 6.978 0 0 0 2.253 2.253 6.978 6.978 0 0 0 -2.253 2.253 6.978 6.978 0 0 0 -2.253-2.253 6.978 6.978 0 0 0 2.253-2.253z"/><path  fill="#ffffff"  d="m61.242 38.03-.508-.127a4.989 4.989 0 0 1 -3.634-3.638l-.127-.508a1 1 0 0 0 -1.94 0l-.127.508a4.989 4.989 0 0 1 -3.64 3.635l-.508.127a1 1 0 0 0 0 1.94l.508.127a4.989 4.989 0 0 1 3.634 3.641l.127.508a1 1 0 0 0 1.94 0l.127-.508a4.989 4.989 0 0 1 3.64-3.635l.508-.127a1 1 0 0 0 0-1.94zm-5.242 3.223a6.978 6.978 0 0 0 -2.253-2.253 6.978 6.978 0 0 0 2.253-2.253 6.978 6.978 0 0 0 2.253 2.253 6.978 6.978 0 0 0 -2.253 2.253z"/><path  fill="#ffffff"  d="m8 45a1 1 0 0 0 .97-.757l.127-.508a4.989 4.989 0 0 1 3.637-3.635l.508-.127a1 1 0 0 0 0-1.94l-.508-.127a4.989 4.989 0 0 1 -3.634-3.641l-.127-.508a1 1 0 0 0 -1.94 0l-.127.508a4.989 4.989 0 0 1 -3.64 3.635l-.508.127a1 1 0 0 0 0 1.94l.508.127a4.989 4.989 0 0 1 3.634 3.641l.127.508a1 1 0 0 0 .973.757zm-2.253-6a6.978 6.978 0 0 0 2.253-2.253 6.978 6.978 0 0 0 2.253 2.253 6.978 6.978 0 0 0 -2.253 2.253 6.978 6.978 0 0 0 -2.253-2.253z"/><path  fill="#ffffff"  d="m58 21h2v2h-2z"/><path  fill="#ffffff"  d="m60 23h2v2h-2z"/><path  fill="#ffffff"  d="m56 23h2v2h-2z"/><path  fill="#ffffff"  d="m58 25h2v2h-2z"/><path  fill="#ffffff"  d="m4 21h2v2h-2z"/><path  fill="#ffffff"  d="m2 23h2v2h-2z"/><path  fill="#ffffff"  d="m6 23h2v2h-2z"/><path  fill="#ffffff"  d="m4 25h2v2h-2z"/></g></svg>