<svg height="480pt" viewBox="-20 0 480 480.0028" width="480pt" xmlns="http://www.w3.org/2000/svg"><path  fill="#ffffff"  d="m105.65625 304.097656c2.742188-.007812 5.292969-1.421875 6.753906-3.742187 1.460938-2.324219 1.628906-5.230469.445313-7.707031-31.703125-66.535157-48.503907-115.167969-48.503907-140.648438 0-75.109375 60.890626-136 136-136 75.113282 0 136 60.890625 136 136 0 25.472656-16.757812 74.070312-48.472656 140.550781-1.566406 3.914063.167969 8.375 3.972656 10.195313 3.800782 1.820312 8.363282.378906 10.429688-3.296875 33.273438-69.609375 50.070312-119.21875 50.070312-147.449219 0-83.949219-68.050781-152-152-152-83.945312 0-152 68.050781-152 152 0 28.238281 16.847657 77.878906 50.082032 147.535156 1.324218 2.785156 4.136718 4.5625 7.222656 4.5625zm0 0"/><path  fill="#ffffff"  d="m144.351562 152c0 30.929688 25.074219 56 56 56 30.929688 0 56-25.070312 56-56s-25.070312-56-56-56c-30.914062.035156-55.964843 25.085938-56 56zm96 0c0 22.089844-17.90625 40-40 40-22.089843 0-40-17.910156-40-40s17.910157-40 40-40c22.082032.027344 39.976563 17.917969 40 40zm0 0"/><path  fill="#ffffff"  d="m400.351562 288c-14.726562-.023438-28.269531 8.058594-35.238281 21.03125-6.972656 12.96875-6.242187 28.722656 1.902344 40.992188l-22.664063 22.664062-56.34375-56.34375c-.71875-.441406-1.402343-.9375-2.046874-1.480469-.097657-.046875-.207032 0-.304688-.078125-.582031-.242187-1.191406-.40625-1.816406-.496094-.382813-.101562-.773438-.175781-1.167969-.226562-.660156.003906-1.320313.089844-1.960937.257812-.335938.042969-.675782.109376-1.007813.191407-.605469.253906-1.183594.582031-1.710937.976562-.328126.179688-.640626.386719-.933594.617188-.113282.101562-.257813.132812-.363282.238281-.390624.460938-.722656.964844-1 1.503906-.164062.191406-.320312.390625-.460937.601563l-.21875.421875-.085937.175781c-29.21875 58.457031-60.9375 113.816406-74.578126 137.183594-13.597656-23.359375-45.359374-78.71875-74.574218-137.183594l-.089844-.175781-.214844-.421875c-.144531-.210938-.304687-.414063-.472656-.609375-.269531-.535156-.601562-1.039063-.992188-1.496094-.101562-.105469-.246093-.136719-.351562-.238281-.300781-.234375-.617188-.441407-.953125-.625-.523437-.390625-1.09375-.710938-1.695313-.960938-.335937-.089843-.675781-.15625-1.023437-.199219-.636719-.167968-1.292969-.253906-1.953125-.257812-.390625.046875-.777344.121094-1.160156.226562-.625.089844-1.238282.253907-1.824219.496094-.09375.039063-.207031 0-.300781.078125-.644532.542969-1.332032 1.039063-2.050782 1.480469l-50.285156 50.289062c-17.1875-11.417968-40.226562-7.960937-53.304687 7.996094-13.078125 15.957032-11.945313 39.226563 2.625 53.835938 14.566406 14.609375 37.832031 15.808594 53.828125 2.777344 15.992187-13.035157 19.515625-36.066407 8.144531-53.28125l42.457031-42.457032c37.328125 73.648438 76.914063 139.921875 77.328125 140.609375 1.445313 2.414063 4.050781 3.890625 6.863281 3.890625s5.421876-1.476562 6.863282-3.890625c.417968-.6875 40-66.960937 77.328125-140.609375l54.152343 54.152344c3.125 3.121094 8.1875 3.121094 11.3125 0l28.320313-28.320312c14.277344 9.46875 32.996094 8.792968 46.554687-1.675782 13.558594-10.46875 18.945313-28.40625 13.398438-44.613281s-20.800781-27.082031-37.929688-27.046875zm-360 136c-13.253906 0-24-10.746094-24-24s10.746094-24 24-24c13.257813 0 24 10.746094 24 24s-10.742187 24-24 24zm360-72c-13.253906 0-24-10.746094-24-24s10.746094-24 24-24c13.257813 0 24 10.746094 24 24s-10.742187 24-24 24zm0 0"/></svg>