<svg height="484pt" viewBox="-2 0 484 484.13451" width="484pt" xmlns="http://www.w3.org/2000/svg">
<path  fill="#ffffff"  d="m416.097656 231.835938c-1.214844 0-2.34375.078124-3.496094.144531-8.609374-23.304688-21.84375-44.625-38.90625-62.679688-34.738281-36.683593-83.035156-57.460937-133.558593-57.460937-50.519531 0-98.820313 20.777344-133.558594 57.460937-17.078125 18.058594-30.324219 39.386719-38.953125 62.695313-1.183594-.070313-2.320312-.160156-3.527344-.160156-5.953125.007812-11.878906.84375-17.601562 2.488281.632812-2.703125 1.257812-5.425781 1.976562-8 1.183594-4.257813-1.308594-8.667969-5.5625-9.851563-4.257812-1.183594-8.667968 1.304688-9.851562 5.5625-1.839844 6.625-3.355469 13.648438-4.632813 20.839844-18.1875 12.132812-28.882812 32.742188-28.3398435 54.597656.5468745 21.855469 12.2578125 41.90625 31.0273435 53.117188 1.78125 6.960937 3.917969 13.828125 6.398438 20.574218 1.167969 3.132813 4.15625 5.207032 7.496093 5.207032.980469-.003906 1.949219-.1875 2.863282-.535156 4.140625-1.542969 6.246094-6.148438 4.707031-10.289063-.90625-2.398437-1.6875-4.886719-2.496094-7.351563 4.597657 1.058594 9.296875 1.609376 14.015625 1.640626 1.214844 0 2.34375-.078126 3.496094-.144532 8.621094 23.304688 21.867188 44.628906 38.941406 62.679688 34.628906 36.847656 83 57.65625 133.5625 57.464844 12.578125.011718 25.125-1.25 37.449219-3.769532 36.820313-7.546875 70.40625-26.300781 96.148437-53.6875 17.078126-18.058594 30.328126-39.386718 38.953126-62.695312 1.144531.0625 2.28125.152344 3.488281.152344 35.347656 0 64-28.652344 64-64 0-35.347657-28.652344-64-64-64zm-19.433594 3.054687c-.199218.066406-.375.167969-.582031.234375-2.820312.910156-5.574219 2.019531-8.242187 3.3125l-1.34375.679688c-2.617188 1.335937-5.136719 2.855468-7.542969 4.542968-.320313.222656-.625.472656-.945313.710938-2.464843 1.789062-4.792968 3.753906-6.976562 5.882812l-.117188.125c-2.148437 2.140625-4.132812 4.433594-5.945312 6.863282-.207031.273437-.433594.53125-.632812.800781-1.710938 2.371093-3.261719 4.855469-4.632813 7.441406-.230469.441406-.46875.871094-.695313 1.3125-1.304687 2.585937-2.433593 5.257813-3.375 8-.167968.488281-.320312.976563-.472656 1.464844-.914062 2.851562-1.628906 5.765625-2.136718 8.71875-.0625.375-.09375.800781-.152344 1.152343-.085938.550782-.15625 1.121094-.230469 1.679688h-24.640625c-.355469-29.652344-4.511719-59.132812-12.367188-87.730469 17.167969-3.453125 33.925782-8.691406 50-15.628906 13.242188 14.847656 23.75 31.925781 31.03125 50.4375zm-45.175781 186.546875c-1.785156 1.597656-3.625 3.085938-5.464843 4.589844-2.398438 1.984375-4.871094 3.914062-7.382813 5.746094-1.9375 1.414062-3.894531 2.765624-5.878906 4.085937-2.5625 1.707031-5.164063 3.335937-7.808594 4.886719-2.046875 1.210937-4.113281 2.402344-6.207031 3.496094-2.714844 1.449218-5.472656 2.785156-8.265625 4.074218-2.128907.984375-4.246094 1.96875-6.398438 2.855469-2.898437 1.191406-5.847656 2.25-8.800781 3.273437-2.152344.742188-4.289062 1.527344-6.472656 2.183594s-4.574219 1.191406-6.863282 1.773438c12.824219-15.183594 22.605469-32.703125 28.800782-51.589844 14.667968 2.871094 29.042968 7.070312 42.949218 12.550781-.757812.679688-1.453124 1.425781-2.207031 2.074219zm-166.542969 33.03125c-2.96875-1.023438-5.921874-2.082031-8.800781-3.273438-2.152343-.886718-4.273437-1.871093-6.398437-2.847656-2.808594-1.296875-5.601563-2.640625-8.320313-4.09375-2.074219-1.105468-4.113281-2.265625-6.136719-3.457031-2.667968-1.601563-5.296874-3.25-7.894531-4.945313-1.953125-1.304687-3.890625-2.632812-5.785156-4-2.558594-1.855468-5.046875-3.824218-7.503906-5.832031-1.800781-1.472656-3.59375-2.945312-5.34375-4.496093-.800781-.6875-1.480469-1.441407-2.242188-2.136719 13.902344-5.46875 28.273438-9.660157 42.9375-12.519531 6.195313 18.886718 15.972657 36.402343 28.800781 51.585937-2.289062-.585937-4.601562-1.097656-6.863281-1.777344-2.265625-.679687-4.296875-1.464843-6.449219-2.207031zm47.152344-262.800781c-15.585937-.300781-31.136718-1.636719-46.542968-4 11.65625-31.753907 28.140624-53.664063 46.542968-58.664063zm49.824219-58.398438c26.773437 6.824219 51.417969 20.230469 71.6875 39.007813-13.882813 5.476562-28.234375 9.675781-42.878906 12.542968-6.199219-18.882812-15.980469-36.394531-28.808594-51.578124zm12.71875 54.453125c-15.410156 2.367188-30.957031 3.703125-46.542969 4v-62.71875c18.398438 5 34.886719 26.910156 46.542969 58.695313zm-125.175781-2.925781c-14.648438-2.871094-29.003906-7.074219-42.886719-12.554687 20.277344-18.769532 44.925781-32.175782 71.703125-39-12.832031 15.171874-22.613281 32.675781-28.816406 51.554687zm11.007812 18.296875c17.078125 2.738281 34.328125 4.265625 51.625 4.574219v80.167969h-63.824218c.414062-28.65625 4.511718-57.136719 12.199218-84.742188zm51.625 100.742188v80.167968c-17.296875.308594-34.546875 1.839844-51.625 4.585938-7.683594-27.613282-11.785156-56.097656-12.199218-84.753906zm16 96.167968c15.585938.300782 31.132813 1.636719 46.542969 4-11.65625 31.753906-28.144531 53.664063-46.542969 58.664063zm-16 0v62.664063c-18.402344-5-34.886718-26.910157-46.542968-58.695313 15.40625-2.355468 30.957031-3.679687 46.542968-3.96875zm67.625-11.425781c-17.082031-2.738281-34.332031-4.265625-51.625-4.574219v-80.167968h63.824219c-.414063 28.65625-4.515625 57.136718-12.199219 84.742187zm-51.625-100.742187v-80.167969c17.292969-.308594 34.546875-1.839844 51.625-4.585938 7.683594 27.613281 11.785156 56.097657 12.199219 84.753907zm-133.542968-103.359376c16.078124 6.9375 32.839843 12.175782 50.007812 15.632813-7.855469 28.59375-12.011719 58.074219-12.371094 87.726563h-24.636718c-.074219-.566407-.144532-1.128907-.234376-1.6875-.054687-.375-.085937-.800782-.152343-1.144532-.507813-2.964844-1.222657-5.894531-2.144531-8.761718-.140626-.460938-.285157-.925782-.445313-1.390626-.953125-2.785156-2.101563-5.5-3.433594-8.128906-.183593-.375-.382812-.742187-.582031-1.109375-1.414062-2.679687-3.019531-5.253906-4.800781-7.707031-.097657-.132812-.207031-.253906-.3125-.390625-3.882813-5.21875-8.546875-9.804687-13.832031-13.601563h-.046876c-2.652343-1.890624-5.449218-3.574218-8.359374-5.03125l-.417969-.207031c-2.886719-1.425781-5.875-2.628906-8.945313-3.601562-.109375 0-.214844-.09375-.328125-.125 7.28125-18.527344 17.789063-35.617188 31.035157-50.472657zm-72.800782 153.871094c-19.574218-10.261718-29.609375-32.558594-24.316406-54.015625 5.296875-21.457031 24.558594-36.523437 46.660156-36.496093 2.566406-.015626 5.128906.21875 7.648438.703124 23.296875 3.71875 40.421875 23.847657 40.351562 47.441407-.070312 23.59375-17.3125 43.621093-40.632812 47.199219-2.429688.457031-4.894532.679687-7.367188.65625-7.789062.003906-15.460937-1.878907-22.359375-5.488282zm42.398438 18.199219c2.820312-.910156 5.574218-2.019531 8.242187-3.3125l1.34375-.679687c2.617188-1.335938 5.136719-2.855469 7.542969-4.542969.320312-.230469.625-.472657.9375-.703125 2.464844-1.792969 4.800781-3.757813 6.980469-5.886719l.121093-.128906c2.144532-2.140625 4.132813-4.433594 5.945313-6.863281.207031-.273438.429687-.53125.632813-.800782 1.710937-2.371094 3.257812-4.855468 4.628906-7.441406.234375-.441406.472656-.871094.699218-1.3125 1.304688-2.585938 2.433594-5.257812 3.375-8 .167969-.488281.320313-.976562.472657-1.464844.914062-2.851562 1.628906-5.765625 2.136719-8.71875.0625-.375.09375-.800781.148437-1.152344.089844-.550781.160156-1.117187.234375-1.679687h24.640625c.355469 29.652344 4.511719 59.132813 12.367187 87.730469-17.164062 3.457031-33.921874 8.695312-50 15.628906-13.238281-14.835938-23.746093-31.898438-31.03125-50.398438.160157-.105468.335938-.183593.527344-.273437zm281.519531 50.65625c-16.074219-6.945313-32.832031-12.1875-50-15.640625 7.84375-28.59375 11.984375-58.078125 12.328125-87.726562h24.640625c.074219.566406.144531 1.128906.230469 1.6875.058594.375.089844.800781.152344 1.144531.507812 2.96875 1.226562 5.894531 2.144531 8.761719.144531.460937.289062.925781.449219 1.382812.953124 2.789062 2.097656 5.507812 3.433593 8.136719.183594.375.382813.742187.582031 1.109375 1.414063 2.679687 3.019532 5.253906 4.800782 7.707031.09375.132813.207031.253906.3125.390625 3.882812 5.21875 8.554687 9.804688 13.839844 13.601562 2.648437 1.894532 5.445312 3.582032 8.359374 5.039063l.414063.207031c2.886719 1.425782 5.875 2.628906 8.945313 3.601563.113281 0 .214843.09375.328124.125-7.269531 18.523437-17.765624 35.613281-31 50.472656zm50.425781-63.367187c-2.566406.015624-5.128906-.21875-7.648437-.703126-23.300781-3.71875-40.421875-23.847656-40.351563-47.441406.070313-23.59375 17.3125-43.621094 40.632813-47.199218 2.425781-.457032 4.894531-.679688 7.367187-.65625 26.507813 0 48 21.492187 48 48 0 26.507812-21.492187 48-48 48zm0 0"/><path  fill="#ffffff"  d="m109.433594 137.066406c1.585937.007813 3.140625-.46875 4.457031-1.359375 6.40625-4.277343 13.042969-8.203125 19.878906-11.757812 3.917969-2.050781 5.433594-6.886719 3.386719-10.804688s-6.882812-5.4375-10.804688-3.386719c-7.351562 3.832032-14.488281 8.0625-21.382812 12.671876-2.921875 1.960937-4.214844 5.605468-3.191406 8.972656 1.027344 3.367187 4.136718 5.667968 7.65625 5.664062zm0 0"/><path  fill="#ffffff"  d="m165.449219 93.003906c-5.761719 2.015625-11.324219 4.128906-16.6875 6.335938-4.085938 1.683594-6.035157 6.359375-4.351563 10.449218 1.683594 4.085938 6.359375 6.035157 10.445313 4.351563 5.105469-2.105469 10.402343-4.117187 15.890625-6.03125 4.167968-1.464844 6.367187-6.03125 4.902344-10.203125-1.460938-4.167969-6.027344-6.363281-10.199219-4.902344zm0 0"/><path  fill="#ffffff"  d="m45.535156 208.882812c4.070313 1.726563 8.765625-.171874 10.488282-4.238281 2.96875-7.011719 6.445312-13.792969 10.402343-20.296875 2.304688-3.773437 1.113281-8.699218-2.660156-11.003906s-8.699219-1.113281-11.003906 2.660156c-4.359375 7.179688-8.195313 14.664063-11.472657 22.398438-1.71875 4.070312.183594 8.757812 4.246094 10.480468zm0 0"/><path  fill="#ffffff"  d="m73.617188 168.765625c2.355468 0 4.589843-1.035156 6.113281-2.832031 4.929687-5.804688 10.277343-11.238282 16-16.257813 2.261719-1.855469 3.328125-4.796875 2.785156-7.671875s-2.609375-5.222656-5.394531-6.125c-2.78125-.902344-5.835938-.210937-7.960938 1.796875-6.296875 5.539063-12.179687 11.535157-17.597656 17.9375-2.007812 2.375-2.453125 5.703125-1.144531 8.523438 1.308593 2.824219 4.136719 4.632812 7.246093 4.636719zm0 0"/><path  fill="#ffffff"  d="m140.257812 469.179688c-6.660156-3.847657-13.09375-8.074219-19.273437-12.65625-2.289063-1.75-5.347656-2.132813-8-1-2.652344 1.132812-4.488281 3.601562-4.808594 6.46875-.320312 2.867187.929688 5.683593 3.265625 7.371093 6.664063 4.953125 13.609375 9.519531 20.800782 13.671875 2.476562 1.453125 5.539062 1.464844 8.03125.035156 2.488281-1.429687 4.019531-4.082031 4.011718-6.953124-.003906-2.871094-1.546875-5.519532-4.042968-6.9375zm0 0"/><path  fill="#ffffff"  d="m73.519531 406.578125c-4.265625-6.402344-8.15625-13.046875-11.65625-19.902344-2.011719-3.9375-6.832031-5.496093-10.769531-3.484375-3.9375 2.011719-5.496094 6.835938-3.484375 10.773438 3.785156 7.398437 7.992187 14.570312 12.601563 21.488281 2.480468 3.585937 7.382812 4.523437 11.011718 2.101563 3.632813-2.417969 4.65625-7.300782 2.296875-10.976563zm0 0"/><path  fill="#ffffff"  d="m87.394531 425.003906c-2.859375-3.371094-7.90625-3.789062-11.277343-.933594-3.371094 2.859376-3.789063 7.90625-.933594 11.277344 5.371094 6.355469 11.097656 12.394532 17.160156 18.089844 3.234375 3.023438 8.308594 2.851562 11.332031-.382812 3.027344-3.234376 2.855469-8.304688-.378906-11.332032-5.617187-5.261718-10.929687-10.84375-15.902344-16.71875zm0 0"/><path  fill="#ffffff"  d="m172.097656 76.117188c7.488282 7.527343 17.675782 11.746093 28.296875 11.71875h139.703125c11.046875 0 20-8.953126 20-20 0-11.046876-8.953125-20-20-20h-59.730468l-42.214844-42.214844c-7.914063-7.476563-20.28125-7.496094-28.222656-.050782-3.789063 3.707032-5.925782 8.777344-5.9375 14.074219-.027344 5.347657 2.09375 10.480469 5.890624 14.246094l13.941407 13.945313h-23.457031l-26.214844-26.214844c-4.070313-3.808594-9.507813-5.804688-15.078125-5.539063-5.566407.265625-10.789063 2.769531-14.480469 6.945313-6.480469 8.265625-5.6875 20.085937 1.839844 27.410156zm168-12.28125c2.207032 0 4 1.789062 4 4 0 2.210937-1.792968 4-4 4h-35.730468l-8-8zm-120.105468-44.128907c.015624-1.050781.449218-2.054687 1.207031-2.78125.691406-.839843 1.71875-1.324219 2.800781-1.324219 1.085938 0 2.113281.484376 2.800781 1.324219l54.945313 54.910157h-11.296875l-49.257813-49.257813c-.765625-.757813-1.195312-1.792969-1.199218-2.871094zm-63.09375 13.546875c.757812-.945312 1.898437-1.496094 3.109374-1.496094 1.058594.007813 2.070313.429688 2.824219 1.175782l28.5625 28.558594c1.5 1.503906 3.539063 2.34375 5.664063 2.34375h42.765625l8 8h-47.429688c-6.363281-.015626-12.460937-2.542969-16.96875-7.03125l-25.679687-25.679688c-1.675782-1.488281-2.035156-3.96875-.847656-5.871094zm0 0"/><path  fill="#ffffff"  d="m72.097656 263.835938c0-4.417969-3.582031-8-8-8-4.417968 0-8 3.582031-8 8v27.71875l-20.441406 13.601562c-3.675781 2.453125-4.667969 7.417969-2.214844 11.097656 2.453125 3.675782 7.417969 4.667969 11.09375 2.214844l24-16c2.21875-1.480469 3.554688-3.96875 3.5625-6.632812zm0 0"/></svg>