<svg xmlns="http://www.w3.org/2000/svg" width="190" height="200" viewBox="0 0 190 200">
  <g id="_1055646" data-name="1055646" transform="translate(-11)">
    <ellipse id="Ellipse_86" data-name="Ellipse 86" cx="95" cy="95.703" rx="95" ry="95.703" transform="translate(11 8.594)" fill="#393852"/>
    <path id="Path_1167" data-name="Path 1167" d="M210.423,351.658a14.305,14.305,0,0,1,12.088,6.648.386.386,0,0,0,.3.178h.029a.385.385,0,0,0,.29-.132,20.878,20.878,0,0,1,21.659-6.3l-6.92-17.869H213.381l-7,18.064A14.213,14.213,0,0,1,210.423,351.658Z" transform="translate(-119.624 -203.641)" fill="#d9eafc"/>
    <g id="Group_820" data-name="Group 820" transform="translate(78.716 130.539)">
      <path id="Path_1168" data-name="Path 1168" d="M216.574,334.179h-3.192l-7,18.064a14.268,14.268,0,0,1,3.41-.562Z" transform="translate(-198.34 -334.179)" fill="#aec1ed"/>
      <path id="Path_1169" data-name="Path 1169" d="M190.269,396.052a.393.393,0,0,0,.154.257.384.384,0,0,0,.229.076.4.4,0,0,0,.061,0,25.928,25.928,0,0,1,21.942,6.732.386.386,0,0,0,.529,0,25.928,25.928,0,0,1,21.942-6.732.4.4,0,0,0,.061,0,.384.384,0,0,0,.229-.076.393.393,0,0,0,.154-.257,32.463,32.463,0,0,1,5.255-13.476,21.287,21.287,0,0,0-30.692,1.449,14.7,14.7,0,0,0-24.5-.495A32.456,32.456,0,0,1,190.269,396.052Z" transform="translate(-185.635 -360.109)" fill="#aec1ed"/>
    </g>
    <path id="Path_1170" data-name="Path 1170" d="M104.765,382.419a32.516,32.516,0,0,0-59.413-13.24,95.73,95.73,0,0,0,37.358,35.77A26.639,26.639,0,0,1,104.765,382.419Z" transform="translate(-21.032 -215.995)" fill="#445ea0"/>
    <path id="Path_1171" data-name="Path 1171" d="M75.79,358.49A34.15,34.15,0,0,1,97.669,366.4a32.438,32.438,0,0,0-52.317,2.784q1.156,1.955,2.4,3.848A34.33,34.33,0,0,1,75.79,358.49Z" transform="translate(-21.032 -215.995)" fill="#293d7c"/>
    <path id="Path_1172" data-name="Path 1172" d="M345.654,354.454a32.671,32.671,0,0,0-32.23,27.965,26.639,26.639,0,0,1,22.056,22.53,95.735,95.735,0,0,0,37.358-35.77A32.492,32.492,0,0,0,345.654,354.454Z" transform="translate(-185.158 -215.995)" fill="#445ea0"/>
    <g id="Group_821" data-name="Group 821" transform="translate(61.677 138.459)">
      <path id="Path_1173" data-name="Path 1173" d="M347.625,354.515c-.652-.039-1.309-.061-1.971-.061a32.671,32.671,0,0,0-32.23,27.965,26.153,26.153,0,0,1,3.557.832A36.925,36.925,0,0,1,347.625,354.515Z" transform="translate(-246.834 -354.454)" fill="#293d7c"/>
      <path id="Path_1174" data-name="Path 1174" d="M204.09,425.177a26.321,26.321,0,0,0-18.074,7.171,26.32,26.32,0,0,0-18.074-7.171,26.593,26.593,0,0,0-26.249,22.874,94.486,94.486,0,0,0,88.646,0A26.592,26.592,0,0,0,204.09,425.177Z" transform="translate(-141.693 -397.551)" fill="#293d7c"/>
    </g>
    <path id="Path_1175" data-name="Path 1175" d="M173.486,428.5a27.4,27.4,0,0,1,10.345,2.016,26.259,26.259,0,0,0-15.89-5.338,26.592,26.592,0,0,0-26.249,22.874q2.34,1.246,4.756,2.361A27.736,27.736,0,0,1,173.486,428.5Z" transform="translate(-80.016 -259.092)" fill="#1a2b63"/>
    <g id="Group_822" data-name="Group 822" transform="translate(95.704 130.538)">
      <path id="Path_1176" data-name="Path 1176" d="M269.271,334.179h-5.862l.748,5.961a2.908,2.908,0,1,0,5.77-.735Z" transform="translate(-250.24 -334.179)" fill="#aec1ed"/>
      <path id="Path_1177" data-name="Path 1177" d="M231.007,334.178l-1.538,12.258a2.909,2.909,0,1,0,5.771.734l1.63-12.993h-5.863Z" transform="translate(-229.446 -334.178)" fill="#aec1ed"/>
    </g>
    <path id="Path_1178" data-name="Path 1178" d="M154.766,180.871q0-4.778.34-9.516c-9.329,5.293-15.757,17.083-15.757,30.734a39.586,39.586,0,0,0,5.146,19.883,1.708,1.708,0,0,0,2.13.727,37.5,37.5,0,0,1,14.054-2.8A128.347,128.347,0,0,1,154.766,180.871Z" transform="translate(-78.582 -104.419)" fill="#fe3745"/>
    <path id="Path_1179" data-name="Path 1179" d="M143.747,202.089c0-11.275,4.387-21.276,11.17-27.4.052-1.114.112-2.225.19-3.334-9.329,5.293-15.757,17.083-15.757,30.734a39.586,39.586,0,0,0,5.146,19.883,1.708,1.708,0,0,0,2.13.727c.729-.3,1.47-.568,2.214-.82A39.607,39.607,0,0,1,143.747,202.089Z" transform="translate(-78.582 -104.419)" fill="#b7092b"/>
    <g id="Group_823" data-name="Group 823" transform="translate(91.152 66.936)">
      <path id="Path_1180" data-name="Path 1180" d="M323.213,171.355q.333,4.731.34,9.516a128.34,128.34,0,0,1-5.914,39.03,37.5,37.5,0,0,1,14.054,2.8,1.708,1.708,0,0,0,2.13-.727,39.582,39.582,0,0,0,5.146-19.883C338.97,188.438,332.543,176.648,323.213,171.355Z" transform="translate(-278.891 -171.355)" fill="#fe3745"/>
      <path id="Path_1181" data-name="Path 1181" d="M217.708,307.125v9.005a1.952,1.952,0,0,0,1.939,1.953h25.818a1.952,1.952,0,0,0,1.939-1.953v-9.005Z" transform="translate(-217.708 -254.09)" fill="#fe3745"/>
    </g>
    <path id="Path_1182" data-name="Path 1182" d="M224.3,316.13v-9.005h-6.595v9.005a1.952,1.952,0,0,0,1.939,1.953h6.595A1.952,1.952,0,0,1,224.3,316.13Z" transform="translate(-126.556 -187.154)" fill="#b7092b"/>
    <path id="Path_1183" data-name="Path 1183" d="M231.907,90.318H184.714a127.515,127.515,0,0,0-6.606,41.171,126.991,126.991,0,0,0,7.164,42.773,1.717,1.717,0,0,0,1.612,1.136h42.854a1.717,1.717,0,0,0,1.612-1.136,126.991,126.991,0,0,0,7.164-42.773A127.5,127.5,0,0,0,231.907,90.318Z" transform="translate(-102.311 -55.038)" fill="#eef6ff"/>
    <path id="Path_1184" data-name="Path 1184" d="M190.768,174.263A126.982,126.982,0,0,1,183.6,131.49a127.515,127.515,0,0,1,6.606-41.171h-5.5a127.515,127.515,0,0,0-6.606,41.171,126.991,126.991,0,0,0,7.164,42.773,1.717,1.717,0,0,0,1.612,1.136h5.5A1.717,1.717,0,0,1,190.768,174.263Z" transform="translate(-102.312 -55.038)" fill="#d9eafc"/>
    <path id="Path_1185" data-name="Path 1185" d="M227.179,90.318V96.8a1.952,1.952,0,0,0,1.939,1.953h18.473A1.952,1.952,0,0,0,249.53,96.8V90.318Z" transform="translate(-132.355 -55.038)" fill="#ea2a3d"/>
    <path id="Path_1186" data-name="Path 1186" d="M231.575,96.8V90.318h-4.4V96.8a1.952,1.952,0,0,0,1.939,1.953h4.4A1.952,1.952,0,0,1,231.575,96.8Z" transform="translate(-132.355 -55.038)" fill="#b7092b"/>
    <path id="Path_1187" data-name="Path 1187" d="M218.529,0a1.706,1.706,0,0,0-1.08.385c-8.662,7.066-15.958,17.785-21.1,31-.547,1.406-1.061,2.839-1.553,4.288H242.26c-.493-1.449-1.007-2.882-1.553-4.288-5.14-13.213-12.436-23.932-21.1-31A1.7,1.7,0,0,0,218.529,0Z" transform="translate(-112.529)" fill="#fe3745"/>
    <path id="Path_1188" data-name="Path 1188" d="M221.277,1.808q-.825-.733-1.668-1.423a1.706,1.706,0,0,0-2.16,0c-8.662,7.066-15.958,17.785-21.1,31-.547,1.406-1.061,2.839-1.553,4.288h5.5c.493-1.449,1.007-2.882,1.553-4.288C206.654,19.027,213.346,8.854,221.277,1.808Z" transform="translate(-112.529)" fill="#b7092b"/>
    <ellipse id="Ellipse_87" data-name="Ellipse 87" cx="19.783" cy="19.93" rx="19.783" ry="19.93" transform="translate(86.217 50.746)" fill="#445ea0"/>
    <ellipse id="Ellipse_88" data-name="Ellipse 88" cx="12.692" cy="12.786" rx="12.692" ry="12.786" transform="translate(93.308 57.89)" fill="#69cdff"/>
    <path id="Path_1189" data-name="Path 1189" d="M227.922,160.987a12.762,12.762,0,0,0,10.365,12.568,12.786,12.786,0,1,1,0-25.136A12.761,12.761,0,0,0,227.922,160.987Z" transform="translate(-129.961 -90.31)" fill="#52bbef"/>
    <path id="Path_1190" data-name="Path 1190" d="M93.27,145.162a1.1,1.1,0,0,1-1.016-.684c-2.165-5.265-3.761-6.873-8.987-9.054a1.111,1.111,0,0,1,0-2.047c5.227-2.182,6.823-3.789,8.987-9.054a1.1,1.1,0,0,1,2.032,0c2.165,5.265,3.761,6.873,8.988,9.054a1.111,1.111,0,0,1,0,2.047c-5.227,2.18-6.823,3.788-8.988,9.054a1.1,1.1,0,0,1-1.016.684Z" transform="translate(-43.829 -75.343)" fill="#ffd00d"/>
    <path id="Path_1191" data-name="Path 1191" d="M94.452,156.332c-2.165-5.265-3.761-6.873-8.987-9.053a1.1,1.1,0,0,1-.574-.552c-.5.237-1.037.474-1.624.72a1.111,1.111,0,0,0,0,2.047c5.227,2.181,6.823,3.788,8.987,9.054a1.1,1.1,0,0,0,2.032,0c.243-.592.479-1.131.714-1.636A1.106,1.106,0,0,1,94.452,156.332Z" transform="translate(-43.829 -89.412)" fill="#ffaf10"/>
    <path id="Path_1192" data-name="Path 1192" d="M396.643,171.892a.967.967,0,0,1-.893-.6c-1.9-4.628-3.306-6.041-7.9-7.958a.976.976,0,0,1,0-1.8c4.595-1.918,6-3.331,7.9-7.959a.964.964,0,0,1,1.786,0c1.9,4.628,3.306,6.041,7.9,7.959a.977.977,0,0,1,0,1.8c-4.594,1.917-6,3.33-7.9,7.958a.966.966,0,0,1-.893.6Z" transform="translate(-230.36 -93.219)" fill="#fff"/>
    <path id="Path_1193" data-name="Path 1193" d="M397.682,181.71c-1.9-4.628-3.306-6.041-7.9-7.958a.968.968,0,0,1-.5-.485c-.441.208-.912.417-1.428.632a.976.976,0,0,0,0,1.8c4.595,1.917,6,3.33,7.9,7.958a.964.964,0,0,0,1.786,0c.214-.52.421-.994.628-1.438A.97.97,0,0,1,397.682,181.71Z" transform="translate(-230.359 -105.585)" fill="#d9eafc"/>
    <path id="Path_1194" data-name="Path 1194" d="M368.195,61.683a1.127,1.127,0,0,1-1.041-.7c-2.217-5.393-3.852-7.039-9.2-9.273a1.138,1.138,0,0,1,0-2.1c5.354-2.234,6.988-3.881,9.2-9.273a1.123,1.123,0,0,1,2.081,0c2.218,5.393,3.852,7.039,9.205,9.273a1.138,1.138,0,0,1,0,2.1c-5.353,2.233-6.987,3.88-9.205,9.273a1.126,1.126,0,0,1-1.04.7Z" transform="translate(-211.992 -24.156)" fill="#ff9518"/>
    <path id="Path_1195" data-name="Path 1195" d="M369.4,73.125c-2.218-5.393-3.852-7.039-9.205-9.273a1.13,1.13,0,0,1-.588-.565c-.513.243-1.062.486-1.664.737a1.138,1.138,0,0,0,0,2.1c5.353,2.234,6.988,3.88,9.2,9.273a1.123,1.123,0,0,0,2.081,0c.249-.606.491-1.159.731-1.676A1.129,1.129,0,0,1,369.4,73.125Z" transform="translate(-211.992 -38.566)" fill="#ef8318"/>
  </g>
</svg>
